<svg id="Camada_1" data-name="Camada 1" xmlns="http://www.w3.org/2000/svg" viewBox="0 0 606.02 927.84"><defs><style>.cls-1{fill:#fff;stroke:#fff;stroke-miterlimit:10;}</style></defs><path class="cls-1" d="M177.08,746.39c-2.19-12.92-27.56-19.39-56.67-14.45s-50.93,19.4-48.74,32.31,27.56,19.38,56.67,14.45S179.26,759.3,177.08,746.39Z" transform="translate(0.5 0.28)"/><path class="cls-1" d="M577.15,751.51a301.38,301.38,0,0,0,27.87-127c0-8.39-.36-16.69-1-24.91-75.61,23.1-158.12,37.91-244.92,42.68,8.75,25.46,14.42,50.7,29.36,73.62C452.79,722.58,519.45,734.53,577.15,751.51Z" transform="translate(0.5 0.28)"/><path class="cls-1" d="M.81,602.37Q0,613.37,0,624.56a301.52,301.52,0,0,0,23.14,116.2C69,710.54,104.56,687.45,214,711.92c13.6-21.74,23.6-45.23,31.84-69.14C159.12,638.74,76.6,624.7.81,602.37Z" transform="translate(0.5 0.28)"/><path class="cls-1" d="M70.86,430a301.94,301.94,0,0,0-55.63,99.57c77.94,22.32,160.6,35.92,249.7,38.95,8.77-38.5,13.14-76.84,14.82-112.41A1043.72,1043.72,0,0,1,70.86,430Z" transform="translate(0.5 0.28)"/><path class="cls-1" d="M590.26,531a302.1,302.1,0,0,0-53.79-98.24,1051.08,1051.08,0,0,1-211.19,23.62c1.7,35.54,6.08,73.84,14.84,112.29C429.3,566.12,512.1,552.94,590.26,531Z" transform="translate(0.5 0.28)"/><path class="cls-1" d="M148.41,364.21a1048.28,1048.28,0,0,0,131,12.3c-1.08-20.46-.53-38.56-2.29-53.41A300.59,300.59,0,0,0,148.41,364.21Z" transform="translate(0.5 0.28)"/><path class="cls-1" d="M461.94,367.44a300.85,300.85,0,0,0-134.09-44.32c-1.78,15-1.24,33.26-2.32,53.92A1060.41,1060.41,0,0,0,461.94,367.44Z" transform="translate(0.5 0.28)"/><path class="cls-1" d="M519.12,818c-46.32,0-92.8-12.16-122-43.69-41.48-44.8-55.79-114.07-67.64-179.42-19.13-105.44-15.12-214.16-10.67-272.36,0,0,.66-21,2.12-46.17h53.69c-.4-.24-1.24-.73-1.64-1-1.79-1.16-3.57-2.34-5.29-3.59l-.56-.39c-1.94-1.35-3.75-2.85-5.6-4.29s-3.58-3.05-5.38-4.56-3.42-3.2-5.14-4.79-3.29-3.33-4.94-5-3.18-3.44-4.75-5.17-3.14-3.47-4.59-5.3l-4.45-5.43-4.2-5.6c-1.11-1.47-2.2-3-3.25-4.47h0c5.16-20.75,8.29-48.12,8.29-78.13,0-64.79-32.64-117.32-32.64-117.32s.39.75,1.06,2.19,1.66,3.55,2.79,6.28,2.47,6.08,3.87,10,2.9,8.29,4.37,13.17,2.92,10.2,4.14,15.9,2.42,11.76,3.34,18.07c.2,1.58.4,3.18.6,4.78l.3,2.42c.07.82.15,1.63.22,2.45.15,1.63.3,3.28.45,4.94s.16,3.32.25,5c.21,3.35.15,6.73.18,10.13.05,1.69-.09,3.39-.13,5.1s-.11,3.41-.23,5.11A163.07,163.07,0,0,1,319,157c-.35,1.65-.64,3.3-1,4.92s-.87,3.22-1.3,4.81c-.77,3.21-1.92,6.26-2.93,9.3-.26.76-.52,1.52-.77,2.27s-.61,1.46-.91,2.19c-.61,1.45-1.21,2.88-1.8,4.31s-1.27,2.8-1.95,4.14l-1.47,2.89c-1.22.49-2.45,1-3.68,1.44.27-.51.5-1.05.76-1.57l1.85-4c.62-1.33,1.27-2.67,1.78-4.1s1.09-2.82,1.65-4.25c.28-.72.56-1.44.85-2.16s.47-1.48.71-2.23c.92-3,2-6,2.69-9.14.39-1.56.78-3.13,1.18-4.71s.64-3.2,1-4.81a162.3,162.3,0,0,0,2.56-19.76c.13-1.67.16-3.34.25-5s.2-3.34.17-5c0-3.33.06-6.65-.13-10-.07-1.64-.13-3.28-.2-4.92s-.24-3.25-.35-4.86c-.06-.81-.12-1.61-.17-2.42s-.17-1.59-.26-2.38c-.17-1.59-.34-3.17-.5-4.73-.82-6.24-1.7-12.27-2.83-17.93s-2.32-11-3.5-15.91-2.46-9.37-3.66-13.3S304.7,42.8,303.75,40s-1.75-5-2.33-6.45-.88-2.27-.88-2.27S267.9,83.82,267.9,148.61c0,30.6,3.26,58.44,8.6,79.32q-1.2,1.66-2.43,3.3l-4.21,5.6-4.44,5.43c-1.45,1.83-3,3.56-4.59,5.3s-3.08,3.52-4.75,5.17-3.24,3.37-4.94,5-3.4,3.22-5.15,4.79-3.53,3.09-5.37,4.56S237,270,235,271.37l-.56.39c-1.72,1.25-3.5,2.43-5.29,3.59l-1.66,1h55.64c1,12.31,2.09,27.49,3.1,46.17,4.45,58.2,8.46,166.92-10.67,272.36-11.85,65.35-26.16,134.62-67.64,179.42C178.75,805.83,132.27,818,85.94,818c-5.59,0-11.13-.25-16.6-.72,106.48,128.8,297.22,146.89,426,40.4a301.89,301.89,0,0,0,40.41-40.4C530.25,817.71,524.71,818,519.12,818Z" transform="translate(0.5 0.28)"/><path class="cls-1" d="M221.12,275.06a60.81,60.81,0,0,0,5.79-3.25c1.9-1.22,3.79-2.46,5.62-3.82s3.63-2.76,5.43-4.16,3.47-3,5.21-4.43,3.35-3.12,5-4.67,3.21-3.26,4.83-4.88,3.11-3.36,4.65-5.06,3.08-3.4,4.5-5.2l.46-.56c-17.38,20.25-32.86,31-40.92,34.46l-2.84,1.22,1.94.48Z" transform="translate(0.5 0.28)"/><path class="cls-1" d="M344.43,244.79c1.54,1.7,3,3.45,4.65,5.06s3.17,3.3,4.83,4.88,3.32,3.14,5,4.67,3.44,3,5.22,4.43,3.56,2.86,5.43,4.16,3.72,2.6,5.62,3.82a60.81,60.81,0,0,0,5.79,3.25l.29.13,1.95-.48-2.84-1.22c-8.06-3.46-23.54-14.21-40.92-34.46l.46.56C341.35,241.39,342.89,243.12,344.43,244.79Z" transform="translate(0.5 0.28)"/><path class="cls-1" d="M286.44,0s.29.44.76,1.22,1.16,1.9,1.91,3.28,1.66,3,2.55,4.72c.44.87.92,1.76,1.36,2.7s.9,1.87,1.35,2.81c.9,1.89,1.7,3.83,2.47,5.63s1.32,3.57,1.88,5a20.21,20.21,0,0,1,.64,2c.16.62.31,1.16.43,1.6l.36,1.39L299.58,29c-.35-.85-.81-2.06-1.45-3.49s-1.37-3.09-2.2-4.86-1.66-3.68-2.58-5.55l-2.58-5.56c-.82-1.78-1.57-3.44-2.22-4.86L287,1.24Z" transform="translate(0.5 0.28)"/></svg>