<svg id="Camada_1" data-name="Camada 1" xmlns="http://www.w3.org/2000/svg" viewBox="0 0 873.7 330.68"><defs><style>.cls-1,.cls-2{fill:#fff;}.cls-2{stroke:#fff;stroke-miterlimit:10;stroke-width:2.8px;}</style></defs><path class="cls-1" d="M303.53,253.31h0C303.5,253.37,303.51,253.34,303.53,253.31Z" transform="translate(0.08 -0.05)"/><path class="cls-1" d="M851.64,183a16.89,16.89,0,0,0,.75,1.94c.27.64.62,1.24.92,1.85l1.1,1.75c.41.55.77,1.13,1.13,1.71a19.68,19.68,0,0,0,1.26,1.63,14.33,14.33,0,0,0,1.36,1.56c.49.49.92,1,1.45,1.48l1.54,1.38c.52.46,1.06.89,1.62,1.3l1.66,1.27,1.75,1.14c.59.37,1.16.77,1.76,1.12l1.7.94-.18-.53c-.27-.92-.53-1.83-.75-2.75s-.4-1.85-.59-2.78-.3-1.86-.45-2.79-.21-1.87-.32-2.81-.14-1.88-.21-2.82-.07-1.88-.1-2.82-.06-1.88,0-2.82l.06-2.82.18-2.81a22,22,0,0,1,.23-2.8l.31-2.8c.08-.94.26-1.86.39-2.79l.43-2.78c.16-.92.37-1.83.52-2.76a23.84,23.84,0,0,1,.62-2.49c-1.27-2.38-2.55-4.76-3.8-7.16-.48,1.32-.93,2.64-1.53,3.9s-1.15,2.62-1.72,3.92c-.29.65-.58,1.29-.86,1.93l-1,1.87c-.65,1.23-1.29,2.46-1.92,3.67-.33.6-.62,1.22-1,1.8s-.71,1.15-1.06,1.72L854.8,175l-1,1.66-1.12,1.57L851,180.48a3.12,3.12,0,0,0,.08.52A17.6,17.6,0,0,0,851.64,183Z" transform="translate(0.08 -0.05)"/><path class="cls-1" d="M851.64,183l.35,1,.4,1,.94,1.85h0l1.1,1.74h0l1,1.51c.16.25.35.48.53.73s.36.48.55.71c.37.48.79.91,1.19,1.37s.8.89,1.22,1.33a17,17,0,0,0,1.32,1.23c.46.39.9.81,1.37,1.19s1,.73,1.44,1.09l1.45,1.09h0l2.58,1.63.65.41c.22.14.43.25.66.37l1.34.73-.28.23c-.3-.86-.5-1.71-.76-2.57s-.42-1.73-.62-2.59-.35-1.77-.51-2.63c-.07-.45-.16-.86-.21-1.33l-.17-1.32-.16-1.34-.12-1.33-.11-1.32,0-1.35-.06-1.33v-6.7c.06-.9.1-1.77.18-2.68s.12-1.76.22-2.66.19-1.76.31-2.65l.39-2.65.42-2.64.5-2.62.66-2.6v.25L865.63,153h.51l-.7,1.85-.79,1.83-1.62,3.6-.82,1.8c-.26.6-.6,1.19-.9,1.76l-1.88,3.48-.95,1.74c-.31.58-.64,1.15-1,1.7l-2.09,3.36-1,1.67a18.09,18.09,0,0,1-1.09,1.65l-2.32,3.19h0a2.85,2.85,0,0,0,.11.65l.17.63Zm0,0-.34-1.26-.17-.64c-.06-.21-.08-.43-.12-.64h0l2.29-3.22c.4-.53.73-1.09,1.08-1.65l1-1.68,2.06-3.37c.36-.56.66-1.14,1-1.72l.91-1.75,1.79-3.52c.31-.6.61-1.16.86-1.77l.78-1.82,1.55-3.63.73-1.82.65-1.86.21-.59.3.56,3.87,7.12.07.12V160l-.63,2.57L869,165.2l-.39,2.63-.36,2.62c-.12.88-.19,1.77-.29,2.65s-.16,1.77-.24,2.65-.13,1.76-.2,2.64V185l.05,1.33v1.32l.09,1.33.08,1.33.13,1.32.14,1.32a10.53,10.53,0,0,0,.18,1.31c.14.89.25,1.74.44,2.61s.32,1.74.57,2.6.42,1.74.7,2.56l.16.48-.44-.25-1.33-.75a5.52,5.52,0,0,1-.66-.4l-.64-.42-2.56-1.7h0l-1.56-1.15a18.05,18.05,0,0,1-1.42-1.13c-.42-.4-.9-.81-1.35-1.22s-.88-.81-1.31-1.25-.83-.88-1.22-1.34-.81-.9-1.17-1.39c-.19-.23-.38-.47-.56-.72s-.36-.48-.52-.74l-1-1.51h0l-1.08-1.75h0l-.92-1.86-.4-1Z" transform="translate(0.08 -0.05)"/><path class="cls-1" d="M868.71,184.76a25.46,25.46,0,0,0,.1,2.76c.1.92.11,1.84.2,2.75s.2,1.83.32,2.74.26,1.82.44,2.72.34,1.8.57,2.69.46,1.76.72,2.63a25.14,25.14,0,0,0,.92,2.51l.06.12.72.36-.55-1.12c-1.56-3.16-3.49-10.49-3.51-21.22V182C868.66,182.91,868.69,183.85,868.71,184.76Z" transform="translate(0.08 -0.05)"/><path class="cls-1" d="M868.71,184.76l.1,2.41c0,.8.13,1.6.2,2.4s.18,1.6.29,2.4.25,1.58.4,2.37l.23,1.19c.07.37.18.78.27,1.16.2.79.35,1.57.6,2.33l.35,1.16.18.58v.14h0V201l.11.28.44,1.12c.14.37.29.78.43,1.1l-.18-.18.73.35-.54.53c-.22-.43-.43-.83-.64-1.3s-.39-.86-.57-1.31l-.47-1.39c-.17-.46-.26-.93-.4-1.4a14.32,14.32,0,0,1-.35-1.4l-.28-1.41c-.21-.94-.29-1.9-.44-2.85s-.19-1.91-.29-2.86c0-.47-.09-.95-.11-1.43l-.06-1.43-.06-1.43v-4.3h0C868.7,182.72,868.71,183.74,868.71,184.76Zm0,0V181.7h0l.11,2.86a7.64,7.64,0,0,0,.09,1.43l.14,1.42.13,1.42c.05.48.13.94.2,1.42.14.94.24,1.88.44,2.81s.33,1.87.57,2.79l.32,1.38c.1.47.26.91.38,1.37s.24.92.4,1.35l.46,1.32c.16.44.37.88.55,1.31s.41.86.61,1.28l.51,1.08-1-.54-.72-.37-.13-.07v-.12c-.17-.41-.28-.77-.42-1.16l-.4-1.14-.09-.28v-.33l-.15-.59-.28-1.17c-.21-.78-.33-1.59-.48-2.38-.07-.4-.16-.78-.22-1.2l-.16-1.19c-.11-.8-.22-1.61-.27-2.41s-.17-1.6-.2-2.41-.1-1.61-.13-2.41Z" transform="translate(0.08 -0.05)"/><path class="cls-1" d="M303.53,253.31Z" transform="translate(0.08 -0.05)"/><path class="cls-1" d="M303.53,253.31h0l-.33-.24h0v.26l.67.2.07-.07h-.07Zm0,0a2.48,2.48,0,0,1-.26-.19h-.06l.06-.07.68.2v.26h0a.93.93,0,0,1-.37-.18h0Z" transform="translate(0.08 -0.05)"/><path class="cls-1" d="M829.1,202.28l1.6-1.56q1.68-1.64,3.61-3.5c1.33-1.21,2.57-2.66,3.92-4.16s2.9-2.92,4.31-4.61l4.4-5.28.57-.69.53-.73,1.06-1.48,2.18-3,1.11-1.54,1-1.64,2.06-3.34,1-1.7c.36-.57.64-1.18,1-1.78.63-1.19,1.26-2.4,1.9-3.62l1-1.83c.28-.64.57-1.27.85-1.91l1.7-3.86a42.5,42.5,0,0,0,1.55-4l1.48-4c.46-1.37.83-2.77,1.26-4.17l.61-2.09c.21-.7.42-1.4.57-2.12.33-1.42.65-2.85,1-4.28.16-.72.35-1.43.48-2.15l.37-2.17.74-4.34c.2-1.45.35-2.91.52-4.36.4-2.9.5-5.82.71-8.7.11-1.45.07-2.89.12-4.32s.09-2.86,0-4.28c-.09-2.83-.11-5.64-.35-8.39a157.88,157.88,0,0,0-1.79-15.79c-.46-2.48-.82-4.92-1.35-7.24-.24-1.16-.48-2.31-.72-3.43l-.79-3.28c-.23-1.07-.51-2.11-.8-3.12-.66.35-1.33.68-2,1.07a16.44,16.44,0,0,0-2.15,1.5c-.67.56-1.37,1.08-2,1.7s-1.26,1.19-1.84,1.84-1.14,1.31-1.76,1.91-1.17,1.29-1.75,1.93c-1.11,1.34-2.2,2.7-3.22,4.12-.52.69-1,1.42-1.5,2.14s-1,1.44-1.45,2.19l-1.39,2.23-1.34,2.26c-.86,1.52-1.73,3.05-2.54,4.6S842,94.43,841.18,96c-3.09,6.3-5.85,12.78-8.38,19.35q-1.9,4.92-3.62,9.91c-.57,1.67-1.13,3.33-1.67,5-.46,1.31-.82,2.67-1.27,4h.25a9.6,9.6,0,0,1,1.39.31c.44.15.88.29,1.3.47l1.23.55a35.23,35.23,0,0,1,4.05,2.31l.64.34a76.86,76.86,0,0,0-7.29,4.32c.69-.41,1.37-.83,2.09-1.2,1.66-.88,3.31-1.78,5-2.56s3.41-1.55,5.14-2.27,3.51-1.29,5.26-1.94c-1.69.8-3.41,1.52-5.06,2.38s-3.33,1.68-4.93,2.63-3.19,1.9-4.76,2.89c-.79.48-1.54,1-2.3,1.56s-1.53,1-2.27,1.59-1.52,1.06-2.28,1.59-1.48,1.11-2.22,1.67c-1.49,1.1-2.88,2.32-4.31,3.49s-2.78,2.45-4.09,3.76-2.62,2.62-3.9,4-2.49,2.74-3.66,4.18c-.6.7-1.19,1.42-1.76,2.15s-1.16,1.45-1.7,2.2-1.11,1.48-1.65,2.24l-1.59,2.27-1.53,2.33-1.47,2.35c-1,1.59-1.88,3.19-2.78,4.82s-1.73,3.27-2.52,4.95-1.56,3.36-2.27,5.06c-.36.87-.71,1.75-1,2.63l.07,0c.76-.56,1.5-1.14,2.28-1.68L792,192c.78-.52,1.57-1.06,2.39-1.53l2.43-1.46c.8-.5,1.66-.91,2.49-1.37s1.65-.92,2.52-1.31l2.56-1.22c.86-.4,1.75-.74,2.62-1.11s1.76-.71,2.65-1,1.78-.67,2.69-.93,1.81-.59,2.73-.81,1.83-.51,2.77-.69,1.86-.41,2.8-.56,1.88-.29,2.83-.4a25.06,25.06,0,0,1,2.92-.17h2.13l-1.58,1.43c-1.17,1.08-2.35,2.19-3.5,3.32s-2.29,2.26-3.43,3.41c-.56.58-1.14,1.14-1.69,1.73l-1.65,1.77c-.55.59-1.09,1.19-1.66,1.76l-1.68,1.74-1.68,1.75c-.56.58-1.13,1.15-1.68,1.75l-3.25,3.59c-.54.6-1.1,1.18-1.62,1.8l-1.57,1.86L800.33,209l2.82-4,1.42-2c.39-.53.79-1,1.2-1.56C600.08,300.2,311.24,254.53,303.5,253.28h0C111.16,228.06,71,65,65,33.28A165.42,165.42,0,0,0,32.34,65.76c.15,1-24.37,34.92-22.84,41.63,0,0,30,9.52,44.76,30,38.25,53.06,87,135.17,215.43,152.88h0S537.85,342,770.44,236.09C795.49,226.85,828.57,202.75,829.1,202.28Z" transform="translate(0.08 -0.05)"/><path class="cls-1" d="M829.1,202.28c2.25-2.22,4.56-4.38,6.77-6.64,1.1-1.13,2.1-2.36,3.21-3.49l3.24-3.47c1-1.19,2-2.42,3-3.63s2.08-2.39,3-3.7l2.77-3.85c.45-.65.93-1.28,1.37-1.93l1.25-2,2.49-4c.81-1.35,1.51-2.77,2.25-4.16s1.51-2.78,2.16-4.22l1.92-4.34c1.31-2.88,2.28-5.9,3.38-8.86.9-3,1.88-6,2.6-9.11l1.06-4.62c.18-.77.32-1.55.45-2.33l.39-2.34c.27-1.56.55-3.11.71-4.68s.37-3.14.51-4.72l.22-2.36.16-2.36c.12-1.58.15-3.16.19-4.74s.1-3.16.07-4.74-.07-3.16-.11-4.74-.16-3.15-.26-4.73l-.42-4.72c-.22-3.16-.73-6.28-1.15-9.41-.18-1.57-.52-3.11-.8-4.67s-.57-3.11-.88-4.66c-.62-3.1-1.39-6.16-2.19-9.22h.08c-.75.43-1.53.8-2.24,1.27s-1.42,1-2.1,1.5a19.29,19.29,0,0,0-1.93,1.69c-.61.59-1.22,1.22-1.82,1.84C857.28,71.4,856.1,72.66,855,74L851.82,78l-1.48,2.12-1.42,2.15-1.37,2.19-1.31,2.22-2.49,4.52-2.35,4.6-4.31,9.38c-.68,1.58-1.31,3.18-2,4.77l-2,4.78c-.63,1.6-1.19,3.23-1.79,4.84l-1.76,4.85c-.59,1.62-1.11,3.26-1.66,4.89s-1,3.28-1.58,4.92l-.08-.11a7.25,7.25,0,0,1,1.13.21l.56.13.54.19c.35.13.72.25,1.06.41l.51.23c.18.08.35.14.53.24l2,1.06,1.94,1.19h0l.64.34.14.08-.14.08-3.69,2.07-3.59,2.24-.1-.15,2.1-1.2,2.14-1.1,2.15-1.09a22.52,22.52,0,0,1,2.18-1l2.21-1,1.1-.49a9.77,9.77,0,0,1,1.13-.44l4.52-1.67.07.18L840.53,137l-4.75,2.53c-1.56.89-3.08,1.85-4.62,2.78s-3,2-4.45,3-3,2-4.38,3.14-2.8,2.25-4.2,3.36a26.05,26.05,0,0,0-2,1.77l-2,1.83c-.68.59-1.31,1.22-1.94,1.87l-1.89,1.92-.94,1-.89,1-1.77,2c-.6.67-1.19,1.34-1.75,2s-1.13,1.38-1.68,2.1c-1.1,1.41-2.17,2.86-3.2,4.33s-2,3-3,4.47-1.86,3.07-2.75,4.63c-.44.78-.92,1.55-1.32,2.34l-1.23,2.4c-.4.8-.83,1.6-1.21,2.41l-1.1,2.46-1.09,2.45-1,2.51-.2-.15,2.27-1.67,2.33-1.57,2.37-1.52,2.41-1.45,2.45-1.37,2.5-1.3c.84-.42,1.69-.81,2.54-1.22s1.72-.74,2.58-1.11,1.75-.68,2.62-1,1.77-.61,2.66-.93,1.8-.54,2.69-.82,1.82-.46,2.73-.7,1.84-.37,2.75-.57,1.86-.27,2.79-.42,1.87-.14,2.81-.21,1.88,0,2.82,0h.38l-.29.25q-1.89,1.72-3.73,3.49c-.62.59-1.25,1.16-1.84,1.77l-1.82,1.8c-1.2,1.21-2.4,2.41-3.56,3.66s-2.33,2.5-3.52,3.72l-3.54,3.68c-.6.61-1.15,1.25-1.73,1.88l-1.72,1.9c-1.14,1.25-2.27,2.53-3.36,3.84l-3.33,3.88-.25-.19,2.68-3.77,1.36-1.88c.45-.63.93-1.23,1.4-1.85l.2.25c-9.73,4.35-19.34,9-29.31,12.79-9.82,4.16-19.93,7.56-30,11.18l-15.24,4.85-3.81,1.2-1.91.61-1.92.54L716,235l-7.7,2.15-3.85,1.07-3.89,1L685,243c-5.19,1.19-10.41,2.24-15.62,3.38-2.61.54-5.21,1.14-7.83,1.64l-7.86,1.45-7.79,1.36-3.93.73-4,.63-15.79,2.5c-5.27.78-10.56,1.43-15.84,2.15-2.65.34-5.28.73-7.93,1l-8,.87-7.94.88-4,.43-4,.35-15.93,1.42-15.95,1.1-4,.28-4,.21-8,.4-8,.4-8,.26c-5.33.15-10.66.41-16,.45s-10.65.2-16,.23h-16l-16-.22c-5.33-.08-10.65-.28-16-.41q-16-.52-31.95-1.43c-5.32-.29-10.63-.68-15.95-1l-15.94-1.23q-15.93-1.35-31.83-3.09c-10.59-1.2-21.17-2.51-31.72-4.14l.35-.16h0l-.08.08-.55-.32v-.1h0l.25.53L292.54,252c-3.58-.57-7.18-1.06-10.71-1.89l-10.65-2.23c-.88-.2-1.78-.35-2.65-.58l-2.63-.7-5.26-1.4-5.26-1.4c-.87-.24-1.75-.45-2.62-.71l-2.59-.84-10.34-3.36c-1.74-.52-3.42-1.21-5.12-1.86l-5.07-2-5.08-1.95c-1.69-.66-3.32-1.47-5-2.19-3.3-1.5-6.63-3-9.91-4.5l-9.66-5-2.42-1.25-2.34-1.37L190.54,216l-4.7-2.76c-1.53-1-3-2-4.54-3l-4.54-3-2.27-1.51c-.74-.51-1.46-1.07-2.19-1.6l-8.74-6.49-8.4-6.92c-1.43-1.12-2.73-2.39-4.08-3.6l-4-3.66c-2.74-2.39-5.21-5-7.79-7.6-1.27-1.29-2.59-2.54-3.82-3.88l-3.66-4-3.65-4-3.48-4.18-3.47-4.19c-1.15-1.41-2.21-2.88-3.32-4.32l-3.29-4.33c-1.11-1.43-2.09-3-3.15-4.44L108.34,138c-1.06-1.47-2-3-3-4.55l-2.94-4.59c-1-1.52-1.86-3.11-2.79-4.66l-2.77-4.69c-.89-1.58-1.74-3.18-2.61-4.77s-1.74-3.18-2.58-4.79l-2.44-4.86c-1.67-3.22-3.14-6.54-4.67-9.83-.78-1.63-1.48-3.31-2.19-5l-2.13-5-2-5.06-1-2.53-.93-2.56c-2.55-6.79-4.75-13.71-6.77-20.67s-3.73-14-5.12-21.15l.58.22-4.55,3.54L56,40.78l-4.29,3.84-4.16,4-4,4.14L39.69,57,36,61.43,32.42,66l.06-.25a1.53,1.53,0,0,1-.07.36,1.62,1.62,0,0,1-.1.18c-.06.12-.12.25-.18.35l-.39.65-.8,1.27L29.3,71,26,76c-2.19,3.34-4.35,6.68-6.45,10.07s-4.14,6.81-6,10.31c-.93,1.76-1.82,3.53-2.59,5.35-.19.46-.39.92-.55,1.38a14.31,14.31,0,0,0-.46,1.4,6.4,6.4,0,0,0-.33,2.78l-.22-.24c3.27,1.1,6.45,2.38,9.58,3.79s6.21,2.91,9.2,4.6a92.81,92.81,0,0,1,16.9,11.71,65.1,65.1,0,0,1,7.16,7.41c2.19,2.66,4.1,5.5,6.11,8.27L70.24,159.6q6,8.37,12.13,16.56t12.71,16.11c4.4,5.23,8.84,10.44,13.54,15.41,2.29,2.54,4.72,4.94,7.1,7.4,1.19,1.22,2.44,2.39,3.66,3.59s2.43,2.41,3.7,3.55c2.53,2.3,5,4.65,7.63,6.85l3.89,3.35,4,3.22c2.62,2.19,5.4,4.19,8.12,6.26,1.35,1,2.77,2,4.16,3l4.2,2.94c2.88,1.85,5.71,3.76,8.63,5.55l4.4,2.63,2.2,1.31,2.25,1.24c3,1.63,6,3.34,9,4.81l4.59,2.29c1.52.78,3.11,1.43,4.66,2.15l4.67,2.11c1.57.68,3.17,1.29,4.75,1.94L205,273.8c1.6.6,3.22,1.16,4.82,1.75l4.83,1.73c1.62.54,3.25,1,4.88,1.56l4.89,1.55c1.64.5,3.3.92,4.94,1.38l4.95,1.36c1.64.48,3.32.81,5,1.22,3.34.75,6.64,1.63,10,2.22l5,1c1.68.32,3.35.69,5,.92l10.14,1.59.38.06-.25.29h0l-.12-.34c10.45,1.9,21,3.4,31.53,4.75s21.12,2.51,31.71,3.47,21.2,1.76,31.81,2.44c5.31.34,10.62.57,15.93.86l15.94.61c5.31.17,10.63.25,15.94.38s10.64.08,16,.12h8l8-.09c2.65,0,5.31,0,8-.11l8-.24,8-.24c2.66-.06,5.32-.24,8-.35l8-.39c2.65-.13,5.31-.23,8-.43l15.92-1.09c5.3-.41,10.59-.93,15.89-1.39,2.64-.26,5.3-.44,7.94-.75l7.92-.89c5.29-.62,10.58-1.11,15.84-1.88l15.81-2.14c5.26-.8,10.5-1.67,15.76-2.5,2.62-.43,5.25-.81,7.87-1.29l7.84-1.47,7.84-1.46c2.61-.49,5.23-1,7.82-1.54l15.6-3.36c1.3-.28,2.6-.55,3.89-.85l3.88-1,7.74-1.9c10.37-2.39,20.57-5.42,30.83-8.22,5.1-1.5,10.16-3.14,15.24-4.71l7.61-2.37c2.53-.83,5-1.74,7.54-2.6l15.07-5.26L741,248.43l7.43-2.89,7.33-3.16,14.64-6.33h0l4-1.56c1.32-.5,2.59-1.13,3.89-1.69l1.93-.86,1.91-.93c1.27-.63,2.55-1.22,3.8-1.88l3.76-2c1.25-.67,2.48-1.36,3.72-2s2.47-1.38,3.69-2.09,2.46-1.4,3.67-2.14l3.63-2.19,3.61-2.23c1.2-.74,2.38-1.52,3.58-2.28s2.38-1.53,3.56-2.31q3.54-2.32,7-4.73C824.51,205.58,826.83,204,829.1,202.28Zm0,0c-2.27,1.69-4.59,3.3-6.92,4.91s-4.67,3.19-7,4.74c-1.18.78-2.36,1.55-3.55,2.31s-2.38,1.54-3.58,2.28l-3.6,2.24L800.81,221c-1.2.74-2.44,1.43-3.66,2.14s-2.45,1.42-3.69,2.09-2.47,1.38-3.72,2l-3.76,2c-1.25.67-2.54,1.25-3.8,1.88l-1.91.93-1.94.87c-1.29.56-2.57,1.19-3.89,1.69l-3.94,1.57h0l-14.64,6.34-7.32,3.16-7.44,2.9-14.87,5.78-15.06,5.27c-2.51.86-5,1.78-7.53,2.61L696,264.61c-5.08,1.56-10.14,3.22-15.24,4.71-10.26,2.81-20.46,5.85-30.82,8.25l-7.75,1.91-3.87.95c-1.3.3-2.6.57-3.9.85l-15.6,3.37c-2.59.59-5.21,1.06-7.82,1.55l-7.84,1.47-7.84,1.47c-2.62.48-5.25.86-7.87,1.3-5.26.83-10.5,1.71-15.76,2.51L555.9,295.1c-5.26.78-10.56,1.27-15.84,1.89l-7.93.89c-2.64.32-5.29.5-7.94.76-5.3.46-10.59,1-15.89,1.4l-15.92,1.1c-2.65.21-5.31.31-8,.45l-8,.39c-2.65.12-5.31.29-8,.36l-8,.24-8,.24c-2.66.08-5.32.08-8,.12l-8,.1-4,0h-4c-5.31,0-10.63,0-16-.12s-10.64-.2-15.95-.36l-15.95-.6c-5.31-.29-10.62-.52-15.93-.85-10.62-.67-21.23-1.42-31.82-2.42s-21.17-2.12-31.73-3.44-21.08-2.84-31.56-4.74l-.36-.07.24-.27h0l.13.35L259.3,289c-1.69-.23-3.37-.59-5.05-.91l-5-1c-3.38-.59-6.69-1.48-10-2.23-1.66-.4-3.35-.73-5-1.21l-5-1.35c-1.65-.47-3.31-.89-5-1.38l-4.9-1.55c-1.63-.52-3.27-1-4.89-1.56l-4.84-1.74c-1.61-.58-3.22-1.14-4.83-1.75L200,272.38c-1.58-.65-3.18-1.26-4.75-1.95l-4.69-2.11c-1.55-.72-3.14-1.36-4.67-2.14l-4.6-2.29c-3.09-1.48-6.06-3.19-9.07-4.82L170,257.83l-2.21-1.31-4.41-2.64c-2.93-1.78-5.77-3.7-8.65-5.55l-4.21-2.94c-1.4-1-2.83-1.94-4.18-3-2.72-2.08-5.51-4.08-8.14-6.27l-4-3.23-3.9-3.35c-2.62-2.2-5.11-4.56-7.64-6.86-1.28-1.14-2.48-2.37-3.72-3.55s-2.47-2.37-3.67-3.6c-2.38-2.46-4.82-4.86-7.12-7.4-4.71-5-9.16-10.19-13.57-15.43S86,182.05,81.84,176.58s-8.17-11-12.15-16.56L57.81,143.28c-2-2.77-3.93-5.62-6.09-8.24a63.85,63.85,0,0,0-7.1-7.33,92.88,92.88,0,0,0-16.79-11.62c-3-1.67-6-3.16-9.16-4.57s-6.29-2.67-9.51-3.75L9,107.7v-.17a7,7,0,0,1,.33-3.11c.14-.49.3-1,.48-1.45s.36-.94.56-1.4c.78-1.85,1.68-3.64,2.61-5.41,1.89-3.53,3.94-7,6-10.36s4.27-6.74,6.45-10.08l3.29-5,1.63-2.51L31.11,67l.37-.63a3.07,3.07,0,0,0,.17-.31l.08-.15h0l.06-.26,3.58-4.55,3.73-4.43L43,52.33l4-4.15,4.17-4,4.31-3.86L59.9,36.6l4.56-3.55.46-.36.12.58c1.38,7.1,3.11,14.13,5.11,21.08S74.37,68.2,76.92,75l.93,2.55,1,2.52,2,5,2.13,5c.71,1.66,1.4,3.33,2.18,5,1.53,3.28,3,6.59,4.67,9.8l2.43,4.85c.84,1.6,1.73,3.18,2.59,4.77s1.71,3.19,2.6,4.76l2.76,4.67c.94,1.55,1.81,3.13,2.79,4.65l2.93,4.57c1,1.51,1.92,3.07,3,4.54l3.11,4.45c1,1.47,2,3,3.14,4.42l3.29,4.31c1.1,1.43,2.16,2.9,3.31,4.3l3.46,4.18,3.47,4.17,3.65,4,3.64,4c1.22,1.34,2.53,2.58,3.8,3.87,2.57,2.54,5,5.2,7.76,7.58l4,3.65c1.34,1.21,2.64,2.47,4.06,3.59l8.37,6.91,8.7,6.47c.73.53,1.45,1.09,2.19,1.6l2.26,1.5,4.52,3c1.51,1,3,2,4.53,3l4.67,2.75,4.68,2.75,2.34,1.37,2.41,1.25,9.63,5c3.27,1.55,6.59,3,9.88,4.49,1.65.73,3.27,1.54,5,2.19l5.06,1.95,5.06,2c1.69.65,3.36,1.34,5.1,1.86l10.32,3.36,2.58.83c.86.27,1.74.48,2.62.72l5.24,1.4L266,246l2.62.7c.88.23,1.77.38,2.65.58l10.62,2.24c3.53.82,7.12,1.31,10.69,1.88l10.72,1.69.53.08-.28.45h0v-.1l-.55-.32c-.12.11-.06.06-.08.08h0l.13-.2h.22c10.52,1.64,21.1,3,31.68,4.16s21.2,2.21,31.81,3.11l15.93,1.24c5.32.34,10.63.73,16,1q16,.93,31.93,1.46c5.32.13,10.65.33,16,.42l16,.23h16c5.33,0,10.66-.15,16-.22s10.65-.29,16-.43l8-.26,8-.4,8-.39,4-.21,4-.27,15.94-1.09,15.92-1.4,4-.35,4-.43,7.94-.87,7.94-.87c2.65-.29,5.28-.69,7.93-1,5.27-.72,10.56-1.37,15.83-2.14l15.79-2.49,3.94-.63,3.93-.72,7.86-1.45,7.86-1.44c2.62-.5,5.21-1.1,7.82-1.64,5.21-1.12,10.43-2.18,15.62-3.36l15.52-3.8,3.88-.94,3.86-1.07,7.69-2.14,7.7-2.15,1.92-.54,1.91-.6,3.81-1.2,15.23-4.83c10-3.62,20.13-7,29.94-11.15,10-3.79,19.57-8.42,29.3-12.76l.58-.27-.38.51c-.47.61-1,1.22-1.4,1.84l-1.35,1.88-2.69,3.76-.25-.19,3.33-3.89c1.09-1.31,2.22-2.58,3.37-3.84l1.72-1.9c.57-.62,1.14-1.27,1.73-1.88l3.55-3.69c1.19-1.22,2.35-2.46,3.52-3.71s2.37-2.46,3.58-3.66l1.81-1.8c.59-.61,1.23-1.19,1.85-1.77,1.23-1.18,2.47-2.35,3.74-3.49l.1.25h-2.8a17.39,17.39,0,0,0-2.79.21c-.9.15-1.86.23-2.77.41s-1.85.34-2.75.57-1.83.43-2.71.69-1.81.52-2.68.82-1.79.6-2.65.92l-2.61,1c-.86.33-1.73.72-2.58,1.11s-1.69.79-2.53,1.21l-2.48,1.29-2.46,1.36-2.4,1.45-2.36,1.52-2.33,1.56-2.26,1.66-.36.27.16-.42,1-2.5,1.1-2.47,1.1-2.46c.39-.82.81-1.6,1.22-2.41l1.23-2.4c.42-.81.89-1.56,1.33-2.35.9-1.55,1.79-3.13,2.75-4.63s2-3,3-4.49,2.11-2.92,3.21-4.33c.55-.71,1.13-1.42,1.69-2.11s1.17-1.38,1.75-2l1.78-2,.9-1,.94-1,1.9-1.92c.62-.64,1.26-1.28,1.93-1.88l2-1.82c.65-.6,1.32-1.23,2-1.78,1.41-1.12,2.77-2.28,4.22-3.37s2.91-2.1,4.38-3.13,2.94-2.07,4.47-3,3-1.88,4.63-2.78l4.75-2.52,4.88-2.3.08.18-4.52,1.66c-.38.15-.76.27-1.12.44l-1.1.49-2.21,1c-.73.33-1.47.63-2.18,1l-2.14,1.09-2.15,1.1-2.09,1.19-.09-.16,3.6-2.24,3.7-2.08v.16l-.64-.35h0l-1.92-1.18-2-1.07c-.15-.08-.33-.15-.5-.23l-.52-.23c-.33-.17-.7-.27-1-.41l-.54-.19-.55-.12a7.93,7.93,0,0,0-1.1-.22h-.1v-.11c.52-1.63,1-3.28,1.58-4.91s1.06-3.27,1.66-4.89l1.78-4.85c.6-1.62,1.14-3.24,1.79-4.84l1.95-4.79c.66-1.59,1.28-3.2,2-4.77l4.32-9.39,2.35-4.6,2.5-4.52,1.31-2.22,1.37-2.19,1.43-2.15,1.48-2.12,3.24-4.24c1.13-1.31,2.3-2.56,3.48-3.82.59-.62,1.21-1.22,1.81-1.84a21,21,0,0,1,1.95-1.7c.67-.54,1.39-1,2.1-1.51a22.77,22.77,0,0,1,2.26-1.26h.06v.07c.79,3.06,1.56,6.13,2.18,9.23.31,1.55.58,3.11.88,4.66s.61,3.11.79,4.68c.42,3.13.93,6.26,1.15,9.41l.42,4.72c.09,1.58.19,3.16.25,4.74s.11,3.16.11,4.74,0,3.17-.07,4.75-.08,3.16-.2,4.73l-.16,2.37-.22,2.36c-.14,1.57-.32,3.15-.52,4.72s-.44,3.13-.71,4.68l-.4,2.34c-.12.78-.26,1.56-.45,2.33l-1,4.62C867.84,142,866.85,145,866,148c-1.11,3-2.08,6-3.39,8.86l-1.92,4.33c-.65,1.44-1.45,2.81-2.16,4.22s-1.45,2.81-2.27,4.17l-2.49,4-1.25,2c-.44.65-.92,1.29-1.37,1.93l-2.77,3.85c-.89,1.31-2,2.47-3,3.7s-2,2.44-3.05,3.63l-3.24,3.47c-1.11,1.12-2.11,2.35-3.22,3.48C833.67,197.91,831.35,200.06,829.1,202.28Z" transform="translate(0.08 -0.05)"/><path class="cls-1" d="M862.13,49.85c-.84-2.44-1.52-4.36-2-5.65s-.79-2-.79-2l0,.1c-.28-.62-.45-1-.46-1l-.37.19-.38.18A150.49,150.49,0,0,1,866,63c-.38-1.49-.73-2.91-1.13-4.26C863.91,55.32,862.91,52.33,862.13,49.85Z" transform="translate(0.08 -0.05)"/><path class="cls-1" d="M862.13,49.85,860.73,46l-.72-1.9-.8-1.86.21-.1.05.09-.21.11-.48-1,.2.06-.75.39.08-.22c.42.85.85,1.7,1.23,2.57l1.17,2.59c.41.86.72,1.76,1.07,2.64l1,2.65c.32.89.71,1.76,1,2.68l.85,2.71c.56,1.82,1.09,3.64,1.62,5.45l-.51.15L865,59.7c-.24-1.11-.59-2.2-.88-3.31C863.45,54.26,862.79,52.07,862.13,49.85Zm0,0c.68,2.18,1.37,4.36,2.09,6.53.36,1.08.76,2.15,1.06,3.26l1,3.29-.51.15c-.63-1.79-1.26-3.57-1.86-5.36L863,55c-.28-.91-.65-1.78-1-2.67l-1-2.66c-.33-.89-.61-1.79-1-2.67l-1-2.64c-.33-.88-.71-1.75-1.08-2.62l-.07-.15.15-.07.76-.35.14-.06.05.13.44,1-.21.1v-.09l.21-.1.7,1.91.66,1.92Z" transform="translate(0.08 -0.05)"/><path class="cls-1" d="M317.91,225.85c3.54-5.87,8.88-33.24,10.4-43.8C205.31,145.67,156.59,38.48,155.24.42c-13.71.85-32.75,5.38-45.35,9.38C132.74,39,157.27,188.68,317.91,225.85Z" transform="translate(0.08 -0.05)"/><path class="cls-1" d="M317.91,225.85l.64-1.26c.19-.42.35-.87.53-1.3.36-.87.62-1.78.93-2.66l.81-2.7.74-2.72c.47-1.83.92-3.65,1.35-5.48l.62-2.75.6-2.76q1.19-5.5,2.21-11.06c.67-3.7,1.32-7.4,1.86-11.12l.07.12-7.87-2.49c-1.31-.43-2.63-.82-3.93-1.27L312.59,177l-3.87-1.42c-1.29-.48-2.6-.91-3.86-1.46l-7.63-3.17c-.64-.27-1.28-.52-1.9-.8l-1.88-.87-3.74-1.75L286,165.76c-1.24-.6-2.45-1.26-3.67-1.89-2.44-1.28-4.91-2.5-7.31-3.85l-7.16-4.11c-1.21-.67-2.36-1.43-3.52-2.16l-3.5-2.2c-1.16-.75-2.34-1.45-3.48-2.23l-3.4-2.34c-4.58-3.06-9-6.42-13.33-9.77l-6.41-5.2c-2.1-1.79-4.15-3.63-6.23-5.44l-1.54-1.36-1.51-1.36-3-2.84c-2-1.86-3.94-3.85-5.87-5.81l-2.9-3-2.79-3-2.79-3c-.93-1-1.8-2.08-2.7-3.12-1.78-2.1-3.61-4.17-5.29-6.35s-3.48-4.27-5.09-6.51q-5-6.6-9.52-13.51c-1.48-2.32-3-4.6-4.41-7s-2.87-4.71-4.18-7.14l-2-3.6-1.91-3.67c-.62-1.23-1.29-2.43-1.88-3.68l-1.78-3.73L167.91,46l-.83-1.9-1.66-3.78c-.54-1.27-1-2.56-1.55-3.84s-1-2.55-1.49-3.85L161,28.77c-.45-1.31-.85-2.63-1.28-3.94l-.63-2-.55-2c-.35-1.34-.78-2.65-1.07-4A82.24,82.24,0,0,1,154.87.47l.42.38-2.88.27c-1,.09-1.92.15-2.87.28l-2.87.39c-1,.14-1.91.24-2.87.41l-5.7,1-5.67,1.15-5.65,1.29c-.94.21-1.87.47-2.81.7l-2.81.71c-.94.22-1.86.5-2.8.75l-2.79.77c-.93.26-1.85.56-2.77.83l-2.77.84.19-.63A60.36,60.36,0,0,1,115.38,18c1.54,2.9,2.91,5.88,4.27,8.86,2.7,6,5.2,12,7.77,18s5.12,12,7.8,18c1.31,3,2.72,5.95,4.08,8.92s2.82,5.89,4.24,8.84L148,89.38,152.63,98l4.88,8.5,5.13,8.35,5.39,8.19,5.67,8c1.93,2.63,4,5.19,5.94,7.79,1,1.31,2,2.56,3.08,3.81l3.14,3.76c2,2.56,4.32,4.9,6.5,7.34,1.11,1.2,2.18,2.43,3.32,3.6l3.46,3.47,3.46,3.47c1.14,1.17,2.39,2.22,3.59,3.34l3.62,3.3,1.81,1.65c.61.55,1.25,1,1.88,1.57l7.56,6.24,7.88,5.83,2,1.46,2,1.35,4.09,2.7,4.09,2.71,4.22,2.49,4.22,2.49c1.41.83,2.81,1.67,4.28,2.39l8.71,4.5c1.43.79,3,1.4,4.44,2.08l4.47,2,4.48,2c1.51.63,3,1.18,4.57,1.78l9.16,3.49,9.34,3c1.56.49,3.11,1,4.68,1.48l4.74,1.24Zm0,0-9.5-2.44-4.75-1.22c-1.57-.45-3.12-1-4.69-1.46l-9.36-3-9.18-3.45c-1.53-.59-3.07-1.14-4.59-1.76l-4.48-2-4.49-2c-1.49-.68-3-1.28-4.46-2.06L253.67,202c-1.48-.71-2.88-1.56-4.29-2.38l-4.25-2.47-4.24-2.47-4.1-2.7-4.1-2.71-2.05-1.35c-.67-.47-1.32-1-2-1.45l-7.9-5.83-7.59-6.24c-.62-.52-1.27-1-1.88-1.57l-1.82-1.65-3.64-3.3c-1.19-1.12-2.45-2.17-3.6-3.34l-3.47-3.47-3.47-3.47c-1.15-1.17-2.22-2.41-3.33-3.61-2.19-2.44-4.48-4.78-6.53-7.34l-3.15-3.76c-1-1.26-2.12-2.5-3.1-3.81-2-2.61-4-5.17-6-7.8l-5.69-8-5.42-8.19-5.14-8.24L152,98.34l-4.68-8.63L142.86,81c-1.41-2.95-2.87-5.88-4.26-8.85s-2.78-5.92-4.09-8.92c-2.69-6-5.27-12-7.84-18s-5.09-12.06-7.79-18c-1.37-3-2.73-5.94-4.26-8.81a61.27,61.27,0,0,0-5.1-8.29l-.34-.47.53-.16,2.78-.84c.93-.28,1.85-.58,2.79-.84l2.8-.78c.93-.25,1.86-.53,2.8-.76l2.82-.72c.94-.23,1.87-.48,2.82-.7l5.66-1.29,5.7-1.15,5.73-1c1-.16,1.92-.26,2.88-.4l2.88-.39c1-.12,1.93-.18,2.9-.28l2.9-.26h.4V.46a82.15,82.15,0,0,0,2.53,16.21c.29,1.34.71,2.65,1.06,4l.55,2,.62,2c.42,1.3.82,2.62,1.26,3.92L163,32.46c.45,1.3,1,2.57,1.48,3.85s1,2.55,1.53,3.82l1.65,3.77.83,1.89.88,1.86,1.77,3.72c.59,1.24,1.25,2.45,1.87,3.67l1.9,3.66,2,3.6c1.31,2.42,2.74,4.76,4.16,7.12s2.91,4.65,4.39,7q4.5,6.9,9.47,13.49c1.6,2.24,3.37,4.34,5.06,6.51s3.5,4.24,5.27,6.34c.9,1,1.76,2.11,2.69,3.12l2.78,3,2.78,3.05,2.89,2.94c1.92,2,3.82,4,5.85,5.81l3,2.84,1.49,1.41,1.55,1.37c2.07,1.81,4.11,3.65,6.2,5.43l6.44,5.12c4.36,3.34,8.72,6.7,13.29,9.76l3.39,2.35c1.13.78,2.31,1.48,3.47,2.23l3.48,2.2c1.17.73,2.31,1.5,3.51,2.16l7.15,4.12c2.39,1.35,4.86,2.57,7.28,3.86,1.23.63,2.43,1.29,3.67,1.89l3.73,1.75,3.73,1.76,1.86.88c.63.29,1.27.54,1.9.81l7.6,3.2c1.26.56,2.56,1,3.85,1.49l3.87,1.43,3.86,1.43c1.3.47,2.62.86,3.92,1.29l7.86,2.53h.09v.09c-.55,3.72-1.22,7.43-1.91,11.12s-1.45,7.38-2.26,11.06l-.61,2.75-.64,2.75q-.66,2.75-1.38,5.47l-.75,2.72-.82,2.7c-.32.88-.58,1.79-.95,2.65-.18.44-.34.88-.54,1.31Z" transform="translate(0.08 -0.05)"/><path class="cls-1" d="M19.77,215.49c-8.9-9.38-14.83-20.14-19.66-30.38a165,165,0,0,0,163.8,145.24c1.34,0,30.83-2,41-5.65-30-6.52-82.84-51.59-93.94-59.46C79.68,243.05,31.91,228.29,19.77,215.49Z" transform="translate(0.08 -0.05)"/><path class="cls-1" d="M19.77,215.49l-3-3.38c-.49-.57-.95-1.18-1.43-1.76l-1.42-1.77c-.48-.59-.89-1.23-1.34-1.83l-1.33-1.85c-.46-.6-.84-1.26-1.27-1.88l-1.24-1.91c-.43-.62-.79-1.29-1.19-1.93l-1.16-2c-.4-.65-.74-1.32-1.12-2l-1.09-2c-.37-.66-.7-1.35-1-2l-1-2-2-4.08h.1c.45,2.89.79,5.79,1.31,8.67l.83,4.31.42,2.15.51,2.13,1,4.27c.32,1.42.79,2.81,1.18,4.22s.8,2.81,1.24,4.21l1.41,4.15c.89,2.79,2,5.48,3.09,8.21.51,1.37,1.13,2.69,1.72,4l1.79,4,2,3.92c.67,1.3,1.27,2.64,2,3.9,1.45,2.53,2.79,5.14,4.38,7.59l2.31,3.73c.79,1.23,1.64,2.42,2.46,3.63s1.61,2.44,2.51,3.59l2.63,3.51c.44.58.87,1.17,1.32,1.74l1.4,1.7,2.78,3.38c.94,1.12,1.94,2.18,2.91,3.28s1.93,2.2,3,3.23l3.07,3.12,1.54,1.56,1.61,1.49,3.2,3c1.08,1,2.22,1.91,3.32,2.86a165.1,165.1,0,0,0,13.91,10.65c1.19.85,2.44,1.6,3.66,2.4s2.44,1.61,3.7,2.35l3.79,2.2,1.89,1.11,1.94,1,3.88,2c1.28.69,2.63,1.26,4,1.9s2.63,1.25,4,1.83l4,1.68c2.67,1.17,5.46,2.07,8.19,3.09,1.36.52,2.77.91,4.17,1.35l4.18,1.3,4.23,1.11c1.42.35,2.82.78,4.25,1l4.29.91,2.14.45,2.16.35,4.32.71c1.44.25,2.9.36,4.34.55l4.35.5,4.37.3,2.18.15c.73.06,1.46.1,2.19.1l4.37.11,2.19.06c.72,0,1.44-.07,2.17-.11l4.37-.32q8.73-.69,17.44-1.78c2.89-.4,5.79-.79,8.66-1.32a59.9,59.9,0,0,0,8.47-2V325a71.51,71.51,0,0,1-12.81-4.4c-4.13-1.82-8.15-3.89-12.08-6.09-7.87-4.4-15.44-9.3-22.86-14.4s-14.67-10.45-21.83-15.91q-5.37-4.1-10.68-8.27l-10.64-8.31c-3.54-2.76-7.31-5.23-11.11-7.63s-7.7-4.64-11.65-6.8c-7.89-4.33-16-8.28-24.11-12.13s-16.34-7.57-24.43-11.51c-4-2-8.06-4-12-6.24-1.95-1.12-3.88-2.28-5.73-3.57A33.46,33.46,0,0,1,19.77,215.49Zm0,0A34.42,34.42,0,0,0,25,219.76c1.85,1.28,3.78,2.44,5.74,3.55,3.91,2.22,7.94,4.24,12,6.21,8.1,3.91,16.32,7.59,24.46,11.42S83.44,248.7,91.34,253c4,2.16,7.86,4.4,11.69,6.78a132.18,132.18,0,0,1,11.16,7.61l10.67,8.28q5.33,4.14,10.7,8.23c7.17,5.43,14.44,10.74,21.86,15.83s15,9.94,22.86,14.3a133.8,133.8,0,0,0,12.05,6,70.42,70.42,0,0,0,12.7,4.32l1.17.26-1.13.39a58.65,58.65,0,0,1-8.58,2.09c-2.88.54-5.78.94-8.69,1.35q-8.72,1.13-17.47,1.84l-4.38.34c-.74,0-1.47.11-2.22.11h-2.2l-4.4-.1a16.06,16.06,0,0,1-2.19-.1l-2.2-.16-4.38-.31-4.37-.52c-1.46-.19-2.92-.3-4.37-.56l-4.33-.73-2.17-.36-2.15-.46-4.3-.92c-1.45-.28-2.85-.72-4.27-1.07l-4.25-1.13L114,323c-1.39-.45-2.81-.84-4.17-1.37-2.75-1-5.54-1.94-8.22-3.13L97.5,316.8c-1.34-.59-2.66-1.24-4-1.86s-2.67-1.21-4-1.91L85.61,311l-1.94-1-1.9-1.11L78,306.63c-1.26-.74-2.47-1.58-3.7-2.36s-2.48-1.57-3.67-2.42a167.82,167.82,0,0,1-13.92-10.73c-1.11-1-2.24-1.89-3.32-2.88l-3.21-3-1.6-1.51L47,282.17,44,279c-1-1-2-2.17-3-3.25s-2-2.17-2.91-3.29l-2.78-3.4-1.39-1.7c-.45-.58-.88-1.17-1.32-1.76l-2.63-3.52c-.89-1.16-1.66-2.41-2.5-3.61s-1.66-2.41-2.45-3.64l-2.3-3.74c-1.59-2.47-2.92-5.08-4.37-7.63-.74-1.26-1.33-2.6-2-3.9l-2-3.94-1.78-4c-.59-1.34-1.21-2.66-1.71-4-1-2.73-2.19-5.43-3.07-8.23l-1.4-4.16c-.43-1.4-.82-2.81-1.23-4.22s-.85-2.8-1.17-4.23l-1-4.27-.51-2.13-.41-2.16-.82-4.31C.74,191,.4,188.13,0,185.24l0-.37.16.34,2,4.09,1,2c.35.67.68,1.35,1,2l1.09,2c.37.66.71,1.34,1.11,2l1.16,1.95c.39.65.75,1.32,1.18,1.94l1.24,1.91c.42.63.8,1.28,1.25,1.89l1.32,1.84c.45.61.87,1.25,1.35,1.84l1.41,1.77c.48.59.93,1.2,1.43,1.77Z" transform="translate(0.08 -0.05)"/><path class="cls-1" d="M320.23,112.34A165.47,165.47,0,0,0,222.74,11.15,165.45,165.45,0,0,0,320.23,112.34Z" transform="translate(0.08 -0.05)"/><path class="cls-1" d="M320.23,112.34l-3.2-8.48-3.66-8.3-4.11-8.07-4.55-7.84-4.95-7.59-5.35-7.3-5.74-7-6.11-6.67-6.47-6.34-6.81-6-7.12-5.58L254.75,28l-7.69-4.77-7.94-4.35L231,15l-8.37-3.44.55-.53,3.12,8.49,3.6,8.31,4,8.09,4.48,7.86,4.91,7.61,5.32,7.32,5.71,7,6.09,6.7,6.44,6.36,6.79,6,7.1,5.62,7.4,5.22,7.66,4.84,7.92,4.41,8.15,4Zm0,0-8.4-3.42-8.2-3.88-8-4.33L287.9,96l-7.44-5.2-7.15-5.61-6.83-6L260,72.79l-6.14-6.7-5.76-7-5.36-7.33-5-7.62-4.54-7.87-4.09-8.12-3.64-8.33-3.18-8.52-.33-.89.88.37,8.39,3.49,8.19,4,8,4.4,7.7,4.82,7.43,5.24,7.12,5.64,6.81,6,6.47,6.38,6.11,6.73,5.73,7,5.33,7.35c1.64,2.54,3.31,5.07,4.93,7.63l4.47,7.9,4,8.14,3.57,8.34Z" transform="translate(0.08 -0.05)"/><path class="cls-1" d="M55.91,212.12c8.49-4.76,6.68-24.13-4-43.27s-26.3-30.8-34.79-26-6.68,24.13,4,43.27S47.44,216.85,55.91,212.12Z" transform="translate(0.08 -0.05)"/><path class="cls-1" d="M55.91,212.12l.45-.29a7.3,7.3,0,0,0,1.22-1,9.61,9.61,0,0,0,1.54-2,13.29,13.29,0,0,0,1.31-3.14,26.05,26.05,0,0,0,.67-9.14,52.88,52.88,0,0,0-2.37-11.68,80.81,80.81,0,0,0-5.44-13,85.82,85.82,0,0,0-8.47-13.25A60.27,60.27,0,0,0,33,146.81a27.2,27.2,0,0,0-7.52-4,12.84,12.84,0,0,0-4.17-.69,8.59,8.59,0,0,0-4,1,10.27,10.27,0,0,0-4.57,6.81,27.63,27.63,0,0,0-.51,8.51,60.83,60.83,0,0,0,3.89,16.28A87.47,87.47,0,0,0,23,188.86a82.89,82.89,0,0,0,8.26,11.44,53.66,53.66,0,0,0,8.72,8.12,26.39,26.39,0,0,0,8.15,4.19,14.1,14.1,0,0,0,3.35.53,10.05,10.05,0,0,0,2.5-.29,7,7,0,0,0,1.47-.53Zm0,0-.48.24a8.3,8.3,0,0,1-1.47.53,9.61,9.61,0,0,1-2.5.3,13.59,13.59,0,0,1-3.36-.51,26.09,26.09,0,0,1-8.19-4.16,55.72,55.72,0,0,1-8.81-8.07,82.87,82.87,0,0,1-8.44-11.37A87.59,87.59,0,0,1,15.56,175a59,59,0,0,1-4.09-16.43,28.57,28.57,0,0,1,.49-8.75,13.91,13.91,0,0,1,1.67-4.16,8.68,8.68,0,0,1,.66-.93l.35-.45.41-.41a7,7,0,0,1,.87-.77c.31-.24.62-.4.93-.61,2.78-1.54,6-1.29,8.84-.37a28.67,28.67,0,0,1,7.72,4.16A59,59,0,0,1,45.28,158.3a87,87,0,0,1,8.34,13.44,81.32,81.32,0,0,1,5.29,13.11,55.82,55.82,0,0,1,2.28,11.73,26.11,26.11,0,0,1-.72,9.15,14.24,14.24,0,0,1-1.33,3.14,9.2,9.2,0,0,1-1.56,2,7.3,7.3,0,0,1-1.22,1Z" transform="translate(0.08 -0.05)"/><path class="cls-2" d="M403.42,93.64H391c-3.18,0-5.45,1.08-6.83,3.22a10.19,10.19,0,0,0-1.37,5.5v1.22a3,3,0,0,0,.11.67v12.36H370.21V97.33q0-6.94,3.48-11.29,4-5,11.76-5h15.8a4.15,4.15,0,0,0,3.44-1.58A5.5,5.5,0,0,0,405.81,76a6,6,0,0,0-1.12-3.63,4.09,4.09,0,0,0-3.44-1.67h-31V58.37h33.19a14.23,14.23,0,0,1,11.77,5.49,20.7,20.7,0,0,1,0,24.27A14.24,14.24,0,0,1,403.42,93.64Z" transform="translate(0.08 -0.05)"/><path class="cls-2" d="M477.84,117.93l-36.67-15.79v14.47H428.46V97.33q0-6.94,3.48-11.29,4-5,11.76-5h15.8a4.15,4.15,0,0,0,3.44-1.58A5.55,5.55,0,0,0,464.05,76a5.91,5.91,0,0,0-1.11-3.63,4.09,4.09,0,0,0-3.44-1.67h-31V58.37h33.19a14.19,14.19,0,0,1,11.76,5.49,20.72,20.72,0,0,1,.05,24.27,14.25,14.25,0,0,1-11.81,5.49h-8l24.22,10.52Z" transform="translate(0.08 -0.05)"/><path class="cls-2" d="M522.62,116.61h-19q-10.26,0-16.19-8.92-5.32-8-5.32-19.69,0-12,5.41-20.34,6-9.27,16.1-9.27h19q10.1,0,16.11,9.27Q544.13,76,544.14,88q0,11.75-5.29,19.69Q532.91,116.62,522.62,116.61ZM520.48,104q4.59,0,7.38-5.36a25,25,0,0,0,2.54-11.71A23.44,23.44,0,0,0,528,75.73q-2.72-5.06-7.47-5.06H505.75q-4.72,0-7.43,5.06a23.44,23.44,0,0,0-2.45,11.19,25.34,25.34,0,0,0,2.49,11.71q2.76,5.36,7.39,5.36Z" transform="translate(0.08 -0.05)"/><path class="cls-2" d="M600.6,85.72a7.63,7.63,0,0,1,.13,1.07v1.76a39,39,0,0,1-1.37,10.69,23.3,23.3,0,0,1-7.13,11.8q-6.53,5.56-17.56,5.57H551.4V104h23.3q6.31,0,9.84-5.79a23.5,23.5,0,0,0,3.1-12.48V58.39h12.92Z" transform="translate(0.08 -0.05)"/><path class="cls-2" d="M659,116.31H625.81A14.31,14.31,0,0,1,614,110.82a19,19,0,0,1-4-12.15,21.74,21.74,0,0,1,.84-6,6.85,6.85,0,0,0,0-10.57,21.41,21.41,0,0,1-.88-6A18.9,18.9,0,0,1,614,64a14.26,14.26,0,0,1,11.81-5.53h33.15V70.72h-31a4,4,0,0,0-3.33,1.58A5.9,5.9,0,0,0,623.37,76a5.54,5.54,0,0,0,1.18,3.59,4,4,0,0,0,3.37,1.5h31V93.69H626.16a4.26,4.26,0,0,0-2.06,2,6.28,6.28,0,0,0-.73,3,5.61,5.61,0,0,0,1.18,3.61,4,4,0,0,0,3.37,1.5h31Z" transform="translate(0.08 -0.05)"/><path class="cls-2" d="M705.21,70.67H692v45.94H679.32V70.67H666.18V58.39h39Z" transform="translate(0.08 -0.05)"/><path class="cls-2" d="M747.91,116.61h-19q-10.26,0-16.19-8.92-5.33-8-5.32-19.69,0-12,5.41-20.34,6-9.27,16.1-9.27h19q10.1,0,16.11,9.27Q769.42,76,769.43,88q0,11.75-5.28,19.69Q758.23,116.62,747.91,116.61ZM745.77,104q4.59,0,7.38-5.36a25,25,0,0,0,2.54-11.71,23.44,23.44,0,0,0-2.45-11.19c-1.8-3.37-4.3-5.06-7.47-5.06H731q-4.72,0-7.43,5.06a23.44,23.44,0,0,0-2.45,11.19,25.34,25.34,0,0,0,2.49,11.71Q726.41,104,731,104Z" transform="translate(0.08 -0.05)"/><path class="cls-2" d="M420.38,159.22a9,9,0,0,1,.15,1.27c0,.5.05,1.19.05,2.07A46.53,46.53,0,0,1,419,175.15a27.42,27.42,0,0,1-8.4,13.91q-7.69,6.57-20.7,6.57H362.44V180.75h27.47q7.44,0,11.6-6.82,3.64-6,3.65-14.71V127h15.23Z" transform="translate(0.08 -0.05)"/><path class="cls-2" d="M489.1,171a22.64,22.64,0,0,1-9.26,19q-8.34,6.39-20.29,6.38-11.79,0-19.74-6.22-8.9-7-8.9-19.13V127.65h14.88v40.94a10.12,10.12,0,0,0,4.6,8.7,17.11,17.11,0,0,0,10.17,2.94,16,16,0,0,0,9.67-2.84,10.37,10.37,0,0,0,4.4-8.8V127.65H489.1Z" transform="translate(0.08 -0.05)"/><path class="cls-2" d="M539.51,168.56h-14.6c-3.75,0-6.41,1.26-8,3.79a12.05,12.05,0,0,0-1.62,6.48v1.44a3.52,3.52,0,0,0,.13.79v14.57h-15V172.91q0-8.21,4.1-13.31,4.71-5.86,13.87-5.87H537a4.87,4.87,0,0,0,4-1.86,6.5,6.5,0,0,0,1.31-4.14,7,7,0,0,0-1.31-4.28,4.8,4.8,0,0,0-4-2H500.42V127h39.12a16.72,16.72,0,0,1,13.87,6.47,24.44,24.44,0,0,1,.05,28.61A16.86,16.86,0,0,1,539.51,168.56Z" transform="translate(0.08 -0.05)"/><path class="cls-2" d="M583.74,195.63H568.51V127h15.23Z" transform="translate(0.08 -0.05)"/><path class="cls-2" d="M638.25,141.48H622.71v54.15h-15V141.48H592.23V127h46Z" transform="translate(0.08 -0.05)"/><path class="cls-2" d="M705.15,195.28H666.08a16.85,16.85,0,0,1-13.91-6.48,22.31,22.31,0,0,1-4.66-14.32,25.55,25.55,0,0,1,1-7.11,20.73,20.73,0,0,1,3-6.25,21.06,21.06,0,0,1-2.91-6.22,24.91,24.91,0,0,1-1-7.07,22.25,22.25,0,0,1,4.66-14.3A16.79,16.79,0,0,1,666.17,127h39.07v14.47H668.61a4.73,4.73,0,0,0-3.92,1.87,7,7,0,0,0-1.44,4.38,6.63,6.63,0,0,0,1.39,4.24,4.78,4.78,0,0,0,4,1.76h36.54v14.83H666.57a5.07,5.07,0,0,0-2.43,2.3,7.41,7.41,0,0,0-.86,3.57,6.64,6.64,0,0,0,1.39,4.25,4.79,4.79,0,0,0,4,1.77h36.54Z" transform="translate(0.08 -0.05)"/><path class="cls-2" d="M774.58,197.19l-43.21-18.61v17h-15V172.91q0-8.21,4.1-13.31,4.69-5.86,13.86-5.87H753a4.89,4.89,0,0,0,4-1.86,6.5,6.5,0,0,0,1.32-4.14,7,7,0,0,0-1.32-4.28,4.77,4.77,0,0,0-4-2H716.37V127h39.11a16.72,16.72,0,0,1,13.87,6.47,24.38,24.38,0,0,1,0,28.61q-5.11,6.47-13.92,6.47H746l28.54,12.39Z" transform="translate(0.08 -0.05)"/></svg>